<svg width="105" height="105" fill="none" xmlns="http://www.w3.org/2000/svg"><path opacity=".2" d="M52.5 105c28.995 0 52.5-23.505 52.5-52.5S81.495 0 52.5 0 0 23.505 0 52.5 23.505 105 52.5 105z" fill="url(#paint0_linear)"/><path d="M52.25 78.5c14.498 0 26.25-11.752 26.25-26.25S66.748 26 52.25 26 26 37.752 26 52.25 37.752 78.5 52.25 78.5z" fill="#0CC" stroke="#173753" stroke-width="3.402" stroke-linecap="round" stroke-linejoin="round"/><path d="M52.25 70.625c10.148 0 18.375-8.227 18.375-18.375S62.398 33.875 52.25 33.875 33.875 42.102 33.875 52.25s8.227 18.375 18.375 18.375z" fill="#E5F9F9"/><path d="M46 52.615h13.23m-6.615 6.615l6.615-6.615L52.615 46v13.23z" stroke="#173753" stroke-width="2.481" stroke-linecap="round" stroke-linejoin="round"/><defs><linearGradient id="paint0_linear" x1="42.731" y1="6.386" x2="77.71" y2="105" gradientUnits="userSpaceOnUse"><stop stop-color="#00C9C9" stop-opacity=".147"/><stop offset="1" stop-color="#00C9C9" stop-opacity=".699"/></linearGradient></defs></svg>