<?xml version="1.0" standalone="no"?>
<!DOCTYPE svg PUBLIC "-//W3C//DTD SVG 20010904//EN"
 "http://www.w3.org/TR/2001/REC-SVG-20010904/DTD/svg10.dtd">
<svg version="1.0" xmlns="http://www.w3.org/2000/svg"
 width="70.000000pt" height="70.000000pt" viewBox="0 0 70.000000 70.000000"
 preserveAspectRatio="xMidYMid meet">
<metadata>
Created by potrace 1.11, written by Peter Selinger 2001-2013
</metadata>
<g transform="translate(0.000000,70.000000) scale(0.100000,-0.100000)"
fill="#000000" stroke="none">
<path d="M383 568 c-12 -6 -23 -20 -25 -31 -2 -13 -15 -24 -33 -30 -38 -12
-85 -55 -85 -78 0 -10 -7 -24 -15 -33 -19 -18 -19 -52 -1 -63 8 -4 17 -32 20
-63 15 -131 27 -150 98 -154 86 -5 110 22 123 143 4 35 13 71 21 78 18 18 18
32 0 52 -7 9 -18 30 -23 46 -5 17 -25 40 -47 55 l-38 25 26 22 c43 36 30 55
-21 31z m17 -93 c29 -15 50 -43 50 -64 0 -19 -15 -12 -25 11 -14 32 -56 52
-88 44 -30 -7 -69 -44 -61 -58 3 -4 -1 -8 -9 -8 -22 0 -9 36 22 63 33 27 73
32 111 12z m2 -48 c18 -28 0 -38 -22 -12 -16 19 -35 19 -54 -1 -25 -25 -39
-11 -15 15 17 18 28 22 52 17 17 -4 35 -12 39 -19z m68 -62 c3 -6 -40 -11
-117 -13 -73 -1 -123 1 -123 7 0 15 14 17 128 16 61 0 109 -4 112 -10z m-140
-60 c0 -18 -5 -25 -19 -25 -11 0 -23 -5 -27 -11 -9 -15 -24 9 -24 39 0 19 5
22 35 22 31 0 35 -3 35 -25z m120 1 c0 -29 -19 -46 -45 -41 -11 2 -26 4 -32 4
-14 1 -18 43 -6 54 3 4 24 7 45 7 33 0 38 -3 38 -24z"/>
</g>
</svg>
